# xmcd CD database file
#
# Track frame offsets:
#	150
#	17497
#	48240
#	60667
#	84565
#	111357
#	133992
#	157602
#	176440
#
# Disc length: 2567 seconds
#
# Revision: 0
# Processed by: cddbd v1.5.1PL0 Copyright (c) Steve Scherf et al.
# Submitted via: CDex 1.51
#
DISCID=690a0509
DTITLE=Halby - Heat and Halby
DYEAR=1991
DGENRE=Blues
TTITLE0=634-5789
TTITLE1=Dream'in
TTITLE2=Old Man
TTITLE3=Stone Bad
TTITLE4=On The Road Again Boogie
TTITLE5=Ball and Chain
TTITLE6=Don't Fight It
TTITLE7=I'll Be Your Baby Tonight
TTITLE8=Give Me That Money
EXTD=YEAR: 1991
EXTT0=
EXTT1=
EXTT2=
EXTT3=
EXTT4=
EXTT5=
EXTT6=
EXTT7=
EXTT8=
PLAYORDER=
